<svg xmlns="http://www.w3.org/2000/svg" data-name="Layer 1" viewBox="0 0 64 64" id="refresh"><path d="M58.34,37.79l-6.19,3.85a3.08,3.08,0,0,1-.38.16l-.24.11a2.42,2.42,0,0,1-.7.1h0a2.67,2.67,0,0,1-.56-.06l-.16-.05-.2-.06a1.4,1.4,0,0,1-.17-.09l-.18-.09a3.32,3.32,0,0,1-.36-.26l-.1-.08a3.16,3.16,0,0,1-.37-.45l0,0a1,1,0,0,1-.07-.15c0-.08-.09-.16-.12-.24a1.55,1.55,0,0,1-.07-.23,1,1,0,0,1-.06-.23,1,1,0,0,1,0-.25,1.79,1.79,0,0,1,0-.23,2,2,0,0,1,0-.25l0-.24a2.58,2.58,0,0,1,.08-.26,1.24,1.24,0,0,1,0-.16A17.92,17.92,0,0,0,19.22,19.27a2.5,2.5,0,0,1-3.52-3.55A22.92,22.92,0,0,1,54.75,32c0,.74,0,1.47-.1,2.2l1.05-.66a2.5,2.5,0,0,1,2.64,4.25Zm-13.58,7A17.92,17.92,0,0,1,15.5,25.41a1.24,1.24,0,0,0,0-.16,2.58,2.58,0,0,0,.08-.26l0-.24a2,2,0,0,0,0-.25,1.79,1.79,0,0,0,0-.23,1,1,0,0,0,0-.25,1,1,0,0,0-.06-.23,1.55,1.55,0,0,0-.07-.23c0-.08-.08-.16-.12-.24a1,1,0,0,0-.07-.15l0-.05-.16-.21c0-.06-.09-.12-.14-.17l-.19-.16-.19-.16-.19-.11a1.92,1.92,0,0,0-.25-.12l-.05,0-.16-.05L13.68,22l-.25,0-.23,0L13,22a1,1,0,0,0-.24,0,.86.86,0,0,0-.23.06l-.23.07a1.75,1.75,0,0,0-.24.11l-.16.08L5.66,26.21A2.5,2.5,0,0,0,7,30.83a2.54,2.54,0,0,0,1.32-.37l1-.66c-.07.73-.1,1.46-.1,2.2a22.92,22.92,0,0,0,39,16.31,2.5,2.5,0,0,0-3.51-3.56Z"></path></svg>